<?xml version="1.0" ?><!DOCTYPE svg  PUBLIC '-//W3C//DTD SVG 1.1//EN'  'http://www.w3.org/Graphics/SVG/1.1/DTD/svg11.dtd'><svg height="32px" id="Layer_1" style="enable-background:new 0 0 32 32;" version="1.1" viewBox="0 0 32 32" width="32px" xml:space="preserve" xmlns="http://www.w3.org/2000/svg" xmlns:xlink="http://www.w3.org/1999/xlink"><g transform="translate(0 288)"><path d="M17.999-272.178c2.319-2.289,4.063-3.072,8.141-2.123c0.466-0.43,0.902-0.844,1.271-1.211   c4.641-4.639,4.094-9.493,4.59-12.488c-2.996,0.498-13.387,0.071-18.023,4.71C9.879-279.189,5.961-268.404,5-264l-5,8h3l4-7   c3.535-0.922,11.305-4.586,16.238-8.741C22.375-272.268,19.078-272.588,17.999-272.178L17.999-272.178z M7.806-265.939   c1.826-2.725,7.693-13.996,19.188-19.144C25.671-283.594,10.745-269.814,7.806-265.939c-0.279,0.414-0.432,0.656-0.432,0.656   C7.452-265.447,7.603-265.672,7.806-265.939z"/></g></svg>